<svg width="21" height="22" viewBox="0 0 21 22" fill="none" xmlns="http://www.w3.org/2000/svg">
<path d="M1.70801 5L4.70801 1H16.708L19.708 5M1.70801 5V19C1.70801 19.5304 1.91872 20.0391 2.29379 20.4142C2.66887 20.7893 3.17757 21 3.70801 21H17.708C18.2384 21 18.7472 20.7893 19.1222 20.4142C19.4973 20.0391 19.708 19.5304 19.708 19V5M1.70801 5H19.708M14.708 9C14.708 10.0609 14.2866 11.0783 13.5364 11.8284C12.7863 12.5786 11.7689 13 10.708 13C9.64714 13 8.62973 12.5786 7.87958 11.8284C7.12944 11.0783 6.70801 10.0609 6.70801 9" stroke="#140F38" stroke-width="1.5" stroke-linecap="round" stroke-linejoin="round"/>
</svg>
