<svg width="25" height="22" viewBox="0 0 25 22" fill="none" xmlns="http://www.w3.org/2000/svg">
<path d="M21.94 2.76815C21.3798 2.20759 20.7145 1.76292 19.9823 1.45954C19.2501 1.15615 18.4653 1 17.6728 1C16.8802 1 16.0954 1.15615 15.3632 1.45954C14.6311 1.76292 13.9658 2.20759 13.4055 2.76815L12.2427 3.93095L11.0799 2.76815C9.94817 1.6364 8.41319 1.00059 6.81265 1.00059C5.21212 1.00059 3.67714 1.6364 2.54539 2.76815C1.41364 3.89989 0.777832 5.43487 0.777832 7.03541C0.777832 8.63594 1.41364 10.1709 2.54539 11.3027L12.2427 21L21.94 11.3027C22.5006 10.7424 22.9453 10.0771 23.2487 9.34495C23.552 8.61276 23.7082 7.82796 23.7082 7.03541C23.7082 6.24285 23.552 5.45806 23.2487 4.72587C22.9453 3.99368 22.5006 3.32844 21.94 2.76815Z" stroke="#140F38" stroke-width="1.5" stroke-linecap="round" stroke-linejoin="round"/>
</svg>
