<svg width="45" height="45" viewBox="0 0 45 45" fill="none" xmlns="http://www.w3.org/2000/svg">
<circle cx="22.5" cy="22.5" r="22.5" fill="#503ADC"/>
<path d="M22.4979 17.6286C25.1937 17.6286 27.3682 19.8036 27.3682 22.5C27.3682 25.1964 25.1937 27.3714 22.4979 27.3714C19.8021 27.3714 17.6276 25.1964 17.6276 22.5C17.6276 19.8036 19.8021 17.6286 22.4979 17.6286ZM22.4979 25.667C24.24 25.667 25.6642 24.2467 25.6642 22.5C25.6642 20.7533 24.2442 19.333 22.4979 19.333C20.7515 19.333 19.3316 20.7533 19.3316 22.5C19.3316 24.2467 20.7558 25.667 22.4979 25.667V25.667ZM16.2924 17.4294C16.2924 18.0611 16.8011 18.5656 17.4284 18.5656C18.06 18.5656 18.5644 18.0568 18.5644 17.4294C18.5644 16.8019 18.0557 16.2931 17.4284 16.2931C16.8011 16.2931 16.2924 16.8019 16.2924 17.4294ZM13.0668 18.5826C13.1388 17.0605 13.4864 15.7123 14.6012 14.6015C15.7117 13.4907 17.0596 13.1431 18.5813 13.0668C20.1496 12.9777 24.8504 12.9777 26.4187 13.0668C27.9361 13.1388 29.284 13.4865 30.3988 14.5973C31.5136 15.7081 31.8569 17.0563 31.9332 18.5783C32.0223 20.147 32.0223 24.8488 31.9332 26.4174C31.8612 27.9395 31.5136 29.2877 30.3988 30.3985C29.284 31.5093 27.9404 31.8569 26.4187 31.9332C24.8504 32.0223 20.1496 32.0223 18.5813 31.9332C17.0596 31.8612 15.7117 31.5135 14.6012 30.3985C13.4906 29.2877 13.1431 27.9395 13.0668 26.4174C12.9777 24.8488 12.9777 20.1512 13.0668 18.5826V18.5826ZM15.0929 28.1006C15.4235 28.9316 16.0635 29.5717 16.8985 29.9067C18.149 30.4027 21.1161 30.2882 22.4979 30.2882C23.8797 30.2882 26.851 30.3985 28.0972 29.9067C28.928 29.576 29.568 28.9358 29.9029 28.1006C30.3988 26.8499 30.2844 23.8821 30.2844 22.5C30.2844 21.1179 30.3946 18.1459 29.9029 16.8994C29.5723 16.0684 28.9322 15.4283 28.0972 15.0933C26.8468 14.5973 23.8797 14.7118 22.4979 14.7118C21.1161 14.7118 18.1447 14.6015 16.8985 15.0933C16.0678 15.424 15.4277 16.0642 15.0929 16.8994C14.5969 18.1501 14.7114 21.1179 14.7114 22.5C14.7114 23.8821 14.5969 26.8541 15.0929 28.1006Z" fill="white"/>
</svg>
