<svg width="136" height="27" viewBox="0 0 136 27" fill="none" xmlns="http://www.w3.org/2000/svg">
<path d="M20.349 11.703C19.97 12.0843 19.6798 12.5445 19.499 13.0508C19.3182 13.557 19.2512 14.097 19.303 14.632L19.285 14.614C19.3381 15.2439 19.2532 15.8778 19.0361 16.4714C18.819 17.065 18.475 17.6042 18.028 18.0511C17.5811 18.4981 17.042 18.8421 16.4483 19.0592C15.8547 19.2763 15.2208 19.3612 14.591 19.308L14.609 19.326C13.8555 19.2559 13.0988 19.4199 12.442 19.7956C11.7852 20.1713 11.2602 20.7404 10.9387 21.4253C10.6171 22.1103 10.5147 22.8778 10.6453 23.6231C10.7759 24.3684 11.1332 25.0553 11.6685 25.5901C12.2038 26.1249 12.891 26.4816 13.6365 26.6116C14.3819 26.7415 15.1493 26.6384 15.834 26.3162C16.5186 25.9941 17.0873 25.4686 17.4624 24.8114C17.8375 24.1543 18.0008 23.3974 17.93 22.644L17.949 22.662C17.8958 22.0322 17.9807 21.3983 18.1978 20.8047C18.4149 20.211 18.7589 19.6719 19.2059 19.225C19.6528 18.778 20.192 18.434 20.7856 18.2169C21.3792 17.9998 22.0131 17.9149 22.643 17.968L22.624 17.95C23.2394 18.0054 23.8589 17.9045 24.4249 17.6567C24.991 17.4089 25.4854 17.0222 25.8622 16.5324C26.239 16.0427 26.4861 15.4658 26.5806 14.8551C26.6751 14.2444 26.6139 13.6198 26.4027 13.0391C26.1915 12.4584 25.8371 11.9404 25.3724 11.5331C24.9077 11.1258 24.3477 10.8424 23.7443 10.7091C23.1409 10.5759 22.5136 10.5972 21.9206 10.7709C21.3276 10.9446 20.7881 11.2653 20.352 11.703H20.349Z" fill="#503ADC"/>
<path d="M12.972 16.968L12.953 16.95C13.4883 17.004 14.0289 16.9383 14.5357 16.7577C15.0426 16.5771 15.5029 16.2861 15.8835 15.9058C16.2641 15.5255 16.5554 15.0654 16.7364 14.5587C16.9174 14.052 16.9835 13.5114 16.93 12.976L16.949 12.994C16.8958 12.3642 16.9807 11.7303 17.1978 11.1367C17.4149 10.543 17.7589 10.0039 18.2059 9.55696C18.6528 9.11001 19.192 8.76598 19.7856 8.54888C20.3792 8.33179 21.0131 8.24686 21.643 8.30003L21.624 8.28203C22.3774 8.35279 23.1344 8.18939 23.7916 7.81413C24.4488 7.43887 24.9743 6.87 25.2963 6.18514C25.6183 5.50027 25.7212 4.73274 25.591 3.98723C25.4608 3.24172 25.1037 2.55454 24.5686 2.0194C24.0334 1.48427 23.3463 1.12724 22.6008 0.997007C21.8553 0.866777 21.0877 0.969689 20.4029 1.29171C19.718 1.61373 19.1491 2.13917 18.7739 2.79638C18.3986 3.45358 18.2352 4.21055 18.306 4.96403L18.288 4.94503C18.3413 5.57492 18.2565 6.20886 18.0395 6.80258C17.8224 7.3963 17.4784 7.93549 17.0314 8.38249C16.5844 8.82948 16.0452 9.17351 15.4515 9.39054C14.8578 9.60757 14.2239 9.69237 13.594 9.63903L13.612 9.65803C13.0766 9.60409 12.536 9.66979 12.0292 9.85038C11.5224 10.031 11.062 10.322 10.6814 10.7023C10.3008 11.0826 10.0095 11.5427 9.82851 12.0494C9.64753 12.5561 9.58142 13.0967 9.63496 13.632L9.61696 13.614C9.66995 14.2438 9.5849 14.8776 9.36775 15.4712C9.15059 16.0647 8.80655 16.6038 8.35964 17.0507C7.91272 17.4976 7.37368 17.8417 6.78012 18.0588C6.18656 18.276 5.55277 18.361 4.92296 18.308L4.94096 18.326C4.18748 18.2553 3.43051 18.4187 2.77331 18.7939C2.1161 19.1692 1.59066 19.7381 1.26864 20.4229C0.946619 21.1078 0.843706 21.8753 0.973935 22.6208C1.10416 23.3663 1.4612 24.0535 1.99633 24.5887C2.53147 25.1238 3.21865 25.4808 3.96416 25.6111C4.70967 25.7413 5.4772 25.6384 6.16207 25.3164C6.84694 24.9943 7.4158 24.4689 7.79106 23.8117C8.16632 23.1545 8.32972 22.3975 8.25896 21.644L8.27796 21.662C8.22479 21.0322 8.30972 20.3983 8.52681 19.8047C8.74391 19.211 9.08794 18.6719 9.53489 18.225C9.98185 17.778 10.521 17.434 11.1146 17.2169C11.7082 16.9998 12.3421 16.9149 12.972 16.968Z" fill="#503ADC"/>
<path d="M6.2699 14.961C6.64892 14.5798 6.9391 14.1196 7.11974 13.6133C7.30038 13.107 7.36702 12.567 7.3149 12.032L7.3339 12.05C7.28069 11.4199 7.36565 10.7859 7.58286 10.1921C7.80007 9.5983 8.14429 9.05907 8.59147 8.61208C9.03865 8.16509 9.57802 7.8211 10.1719 7.60415C10.7658 7.38719 11.3999 7.30249 12.0299 7.35597L12.0109 7.33797C12.7641 7.40854 13.5208 7.24505 14.1777 6.86981C14.8346 6.49458 15.3597 5.92585 15.6816 5.2412C16.0034 4.55654 16.1062 3.78929 15.976 3.04406C15.8458 2.29883 15.4888 1.61191 14.9539 1.07697C14.419 0.542031 13.732 0.185112 12.9868 0.0548883C12.2416 -0.0753355 11.4743 0.0274752 10.7897 0.349299C10.105 0.671123 9.53629 1.19629 9.16105 1.85319C8.78582 2.5101 8.62233 3.26675 8.6929 4.01997L8.6749 4.00197C8.72807 4.63182 8.64314 5.26569 8.42604 5.85933C8.20895 6.45297 7.86492 6.99208 7.41796 7.43904C6.97101 7.886 6.43189 8.23003 5.83825 8.44712C5.24461 8.66421 4.61075 8.74914 3.9809 8.69597L3.9989 8.71397C3.38347 8.65878 2.76406 8.75983 2.19808 9.00775C1.6321 9.25567 1.13786 9.64244 0.761145 10.1322C0.384435 10.622 0.137448 11.199 0.0430726 11.8096C-0.0513028 12.4203 0.00998625 13.0448 0.221261 13.6255C0.432535 14.2062 0.78696 14.7241 1.25169 15.1313C1.71642 15.5385 2.27642 15.8218 2.8798 15.955C3.48317 16.0882 4.1104 16.0669 4.70337 15.8931C5.29633 15.7194 5.83584 15.3988 6.2719 14.961H6.2699Z" fill="#503ADC"/>
<path d="M37.2469 4.98706H40.2169V19.4401H37.2469V4.98706Z" fill="#503ADC"/>
<path d="M41.8989 14.4911C41.8948 13.4525 42.199 12.436 42.773 11.5704C43.347 10.7047 44.165 10.029 45.1234 9.6286C46.0818 9.22825 47.1375 9.12134 48.1567 9.32142C49.1758 9.5215 50.1127 10.0196 50.8486 10.7525C51.5846 11.4855 52.0864 12.4204 52.2905 13.4388C52.4947 14.4571 52.392 15.5132 51.9955 16.4732C51.599 17.4332 50.9265 18.2539 50.0632 18.8314C49.1999 19.4089 48.1846 19.7171 47.1459 19.7171C46.4565 19.725 45.7724 19.5954 45.1336 19.3358C44.4948 19.0762 43.9142 18.6919 43.4257 18.2053C42.9372 17.7187 42.5505 17.1397 42.2884 16.5019C42.0262 15.8642 41.8938 15.1806 41.8989 14.4911ZM49.4229 14.4911C49.4106 14.0434 49.2665 13.6093 49.0087 13.2431C48.7509 12.8768 48.3909 12.5947 47.9737 12.4319C47.5565 12.2691 47.1005 12.233 46.6628 12.3279C46.2251 12.4229 45.8251 12.6448 45.5129 12.9658C45.2006 13.2869 44.9899 13.6929 44.9071 14.133C44.8243 14.5732 44.8731 15.0279 45.0473 15.4405C45.2216 15.8531 45.5136 16.2051 45.8869 16.4527C46.2601 16.7002 46.6981 16.8322 47.1459 16.8321C47.4527 16.8403 47.7578 16.7849 48.042 16.6693C48.3262 16.5537 48.5834 16.3805 48.7973 16.1605C49.0113 15.9406 49.1773 15.6787 49.285 15.3914C49.3927 15.104 49.4396 14.7975 49.4229 14.4911Z" fill="#503ADC"/>
<path d="M64.2299 9.5411V18.9411C64.2299 22.2671 61.6359 23.6731 59.0029 23.6731C58.0759 23.7425 57.1476 23.5552 56.3199 23.1319C55.4923 22.7085 54.7972 22.0654 54.3109 21.2731L56.8449 19.8081C57.0493 20.2211 57.375 20.5618 57.7783 20.7847C58.1817 21.0075 58.6435 21.1019 59.1019 21.0551C59.3949 21.0957 59.6933 21.0699 59.975 20.9796C60.2566 20.8893 60.5144 20.7368 60.7292 20.5335C60.944 20.3301 61.1103 20.0811 61.2159 19.8047C61.3214 19.5284 61.3635 19.2319 61.3389 18.9371V18.0321C60.9911 18.4576 60.5485 18.7957 60.0464 19.0192C59.5443 19.2427 58.9969 19.3454 58.4479 19.3191C57.1417 19.2779 55.9028 18.7301 54.9934 17.7915C54.084 16.853 53.5755 15.5974 53.5755 14.2906C53.5755 12.9838 54.084 11.7282 54.9934 10.7897C55.9028 9.85113 57.1417 9.30329 58.4479 9.2621C58.9969 9.23575 59.5443 9.33846 60.0464 9.56197C60.5485 9.78548 60.9911 10.1236 61.3389 10.5491V9.5391L64.2299 9.5411ZM61.3399 14.2921C61.3599 13.8135 61.2361 13.3398 60.9846 12.9321C60.7331 12.5243 60.3653 12.2012 59.9286 12.0043C59.4919 11.8073 59.0063 11.7456 58.5342 11.827C58.0621 11.9084 57.6252 12.1292 57.2796 12.4611C56.9341 12.7929 56.6958 13.2205 56.5953 13.6889C56.4949 14.1573 56.5369 14.6451 56.7161 15.0894C56.8952 15.5337 57.2032 15.9143 57.6004 16.1821C57.9976 16.4499 58.4659 16.5927 58.9449 16.5921C59.257 16.6139 59.5701 16.5701 59.8642 16.4635C60.1583 16.3569 60.4268 16.1898 60.6524 15.9732C60.878 15.7565 61.0558 15.495 61.1742 15.2054C61.2926 14.9159 61.3491 14.6048 61.3399 14.2921Z" fill="#503ADC"/>
<path d="M65.9119 14.4911C65.9078 13.4525 66.212 12.436 66.786 11.5704C67.36 10.7047 68.178 10.029 69.1364 9.6286C70.0948 9.22825 71.1505 9.12134 72.1697 9.32142C73.1889 9.5215 74.1257 10.0196 74.8616 10.7525C75.5976 11.4855 76.0994 12.4204 76.3035 13.4388C76.5077 14.4571 76.405 15.5132 76.0085 16.4732C75.612 17.4332 74.9395 18.2539 74.0762 18.8314C73.2129 19.4089 72.1976 19.7171 71.1589 19.7171C70.4695 19.725 69.7854 19.5954 69.1466 19.3358C68.5078 19.0762 67.9272 18.6919 67.4387 18.2053C66.9502 17.7187 66.5635 17.1397 66.3014 16.5019C66.0392 15.8642 65.9069 15.1806 65.9119 14.4911ZM73.4359 14.4911C73.4236 14.0434 73.2795 13.6093 73.0217 13.2431C72.7639 12.8768 72.4039 12.5947 71.9867 12.4319C71.5695 12.2691 71.1135 12.233 70.6758 12.3279C70.2381 12.4229 69.8381 12.6448 69.5259 12.9658C69.2136 13.2869 69.0029 13.6929 68.9201 14.133C68.8373 14.5732 68.8861 15.0279 69.0603 15.4405C69.2346 15.8531 69.5266 16.2051 69.8999 16.4527C70.2731 16.7002 70.7111 16.8322 71.1589 16.8321C71.4657 16.8403 71.7708 16.7849 72.055 16.6693C72.3392 16.5537 72.5964 16.3805 72.8103 16.1605C73.0243 15.9406 73.1903 15.6787 73.298 15.3914C73.4057 15.104 73.4526 14.7975 73.4359 14.4911Z" fill="#503ADC"/>
<path d="M77.7909 6.88796C77.7909 6.53551 77.8954 6.19098 78.0912 5.89793C78.287 5.60489 78.5653 5.37648 78.891 5.2416C79.2166 5.10673 79.5749 5.07144 79.9205 5.1402C80.2662 5.20896 80.5837 5.37868 80.833 5.6279C81.0822 5.87711 81.2519 6.19463 81.3207 6.54031C81.3894 6.88598 81.3541 7.24428 81.2192 7.5699C81.0844 7.89552 80.856 8.17383 80.5629 8.36964C80.2699 8.56545 79.9253 8.66996 79.5729 8.66996C79.1017 8.66527 78.6512 8.47602 78.318 8.14284C77.9848 7.80966 77.7956 7.35912 77.7909 6.88796ZM78.0909 9.54096H81.0619V19.441H78.0869L78.0909 9.54096Z" fill="#503ADC"/>
<path d="M93.8859 14.4911C93.9202 15.1453 93.8248 15.8 93.6053 16.4173C93.3857 17.0346 93.0463 17.6024 92.6066 18.088C92.1668 18.5737 91.6354 18.9677 91.0428 19.2472C90.4503 19.5268 89.8083 19.6865 89.1539 19.7171C88.6035 19.7471 88.0533 19.6543 87.5433 19.4453C87.0332 19.2364 86.576 18.9166 86.2049 18.5091V23.4001H83.2349V9.54106H86.2049V10.4711C86.5762 10.0638 87.0334 9.74428 87.5435 9.53553C88.0535 9.32678 88.6036 9.23405 89.1539 9.26406C89.8085 9.29453 90.4506 9.45415 91.0432 9.73374C91.6359 10.0133 92.1674 10.4074 92.6072 10.8932C93.047 11.379 93.3864 11.9469 93.6059 12.5644C93.8253 13.1819 93.9205 13.8367 93.8859 14.4911ZM90.9159 14.4911C90.9043 14.0277 90.7562 13.5781 90.4904 13.1985C90.2245 12.8189 89.8526 12.5261 89.4211 12.3568C88.9897 12.1875 88.5179 12.1493 88.0648 12.2468C87.6117 12.3444 87.1974 12.5734 86.8738 12.9052C86.5503 13.237 86.3317 13.6569 86.2456 14.1123C86.1595 14.5677 86.2096 15.0384 86.3897 15.4655C86.5698 15.8925 86.8718 16.257 87.258 16.5132C87.6442 16.7695 88.0974 16.9061 88.5609 16.9061C88.879 16.9202 89.1966 16.867 89.4928 16.7498C89.789 16.6326 90.057 16.4542 90.2794 16.2261C90.5017 15.9981 90.6734 15.7256 90.7831 15.4266C90.8928 15.1276 90.938 14.8088 90.9159 14.4911Z" fill="#503ADC"/>
<path d="M103.051 16.4701C103.051 18.7471 101.072 19.7171 98.934 19.7171C98.0702 19.7954 97.2027 19.6127 96.4438 19.1927C95.6849 18.7727 95.0694 18.1347 94.677 17.3611L97.25 15.8961C97.3541 16.2537 97.5777 16.5647 97.8834 16.7773C98.1892 16.9898 98.5586 17.0911 98.93 17.0641C99.642 17.0641 99.999 16.8461 99.999 16.4511C99.999 15.3611 95.128 15.9361 95.128 12.5111C95.128 10.3521 96.95 9.26413 99.009 9.26413C99.783 9.23964 100.549 9.42322 101.228 9.79575C101.907 10.1683 102.474 10.7161 102.869 11.3821L100.335 12.7481C100.224 12.4888 100.039 12.2679 99.8031 12.1131C99.5673 11.9582 99.2911 11.8761 99.009 11.8771C98.494 11.8771 98.177 12.0771 98.177 12.4311C98.181 13.5601 103.051 12.8071 103.051 16.4701Z" fill="#503ADC"/>
<path d="M113.9 9.54102V19.441H110.93V18.51C110.587 18.9208 110.152 19.2445 109.66 19.4545C109.168 19.6645 108.634 19.7548 108.1 19.718C106.1 19.718 104.4 18.293 104.4 15.618V9.54102H107.37V15.183C107.345 15.4188 107.372 15.6572 107.449 15.8815C107.525 16.1059 107.65 16.3109 107.814 16.4822C107.978 16.6535 108.177 16.7871 108.398 16.8735C108.618 16.96 108.855 16.9974 109.092 16.983C110.181 16.983 110.933 16.35 110.933 14.944V9.54402L113.9 9.54102Z" fill="#503ADC"/>
<path d="M130.93 13.362V19.44H127.96V13.619C127.96 12.629 127.485 11.996 126.535 11.996C125.545 11.996 124.99 12.689 124.99 13.857V19.44H122.021V13.619C122.021 12.629 121.546 11.996 120.595 11.996C119.605 11.996 119.051 12.689 119.051 13.857V19.44H116.081V9.54001H119.051V10.45C119.359 10.0463 119.763 9.72614 120.226 9.5188C120.69 9.31145 121.198 9.22351 121.704 9.26301C122.212 9.23816 122.718 9.34539 123.173 9.57427C123.627 9.80315 124.014 10.1459 124.297 10.569C124.626 10.1263 125.062 9.77435 125.564 9.54595C126.066 9.31755 126.618 9.2202 127.168 9.26301C129.441 9.26401 130.93 10.887 130.93 13.362Z" fill="#503ADC"/>
<path d="M133.442 9.48002C134.659 9.48002 135.646 8.49326 135.646 7.27602C135.646 6.05878 134.659 5.07202 133.442 5.07202C132.225 5.07202 131.238 6.05878 131.238 7.27602C131.238 8.49326 132.225 9.48002 133.442 9.48002Z" fill="#503ADC"/>
</svg>
