<svg width="34" height="25" viewBox="0 0 34 25" fill="none" xmlns="http://www.w3.org/2000/svg">
<g opacity="0.5">
<path d="M6.86896 24.8626V23.2099C6.88845 22.9287 6.786 22.6527 6.58776 22.4523C6.38951 22.252 6.11464 22.1466 5.83327 22.1631C5.46246 22.1388 5.10782 22.3183 4.90775 22.6314C4.72534 22.3276 4.39135 22.1479 4.03732 22.1631C3.72907 22.1476 3.43561 22.2964 3.26605 22.5543V22.2292H2.69312V24.8626H3.27156V23.4137C3.24665 23.2314 3.30442 23.0474 3.4291 22.9121C3.55379 22.7768 3.73237 22.7041 3.91612 22.714C4.29624 22.714 4.48906 22.9619 4.48906 23.4082V24.8736H5.06751V23.4137C5.04362 23.2316 5.10174 23.0482 5.22619 22.9131C5.35064 22.7781 5.52861 22.7051 5.71207 22.714C6.10321 22.714 6.29051 22.9619 6.29051 23.4082V24.8736L6.86896 24.8626ZM15.4272 22.2292H14.4852V21.4304H13.9068V22.2292H13.3834V22.7526H13.9178V23.9646C13.9178 24.5761 14.1547 24.9397 14.8323 24.9397C15.0854 24.9405 15.3337 24.8699 15.5484 24.7359L15.3832 24.2455C15.2295 24.3372 15.0552 24.3884 14.8763 24.3943C14.6009 24.3943 14.4962 24.218 14.4962 23.9536V22.7526H15.4328L15.4272 22.2292ZM20.3138 22.1631C20.0292 22.1548 19.7629 22.3027 19.6196 22.5488V22.2292H19.0522V24.8626H19.6251V23.3861C19.6251 22.9509 19.8124 22.7085 20.176 22.7085C20.2986 22.7069 20.4203 22.7293 20.5341 22.7746L20.7104 22.2237C20.5796 22.1769 20.4417 22.1527 20.3027 22.1521L20.3138 22.1631ZM12.9261 22.4386C12.6018 22.2458 12.229 22.1502 11.8519 22.1631C11.1853 22.1631 10.7501 22.4827 10.7501 23.006C10.7501 23.4357 11.0696 23.7002 11.6591 23.7828L11.9345 23.8214C12.2485 23.8654 12.3973 23.9481 12.3973 24.0968C12.3973 24.3006 12.1879 24.4163 11.7968 24.4163C11.4822 24.4254 11.1736 24.3284 10.9209 24.1409L10.6454 24.5871C10.9791 24.8201 11.3789 24.9399 11.7858 24.9287C12.546 24.9287 12.9867 24.5706 12.9867 24.0693C12.9867 23.5679 12.6397 23.3641 12.0667 23.2815L11.7913 23.2429C11.5434 23.2099 11.3451 23.1603 11.3451 22.984C11.3451 22.8077 11.5324 22.6755 11.8464 22.6755C12.1366 22.6788 12.4211 22.7566 12.6727 22.9013L12.9261 22.4386ZM28.2716 22.1631C27.987 22.1548 27.7207 22.3027 27.5774 22.5488V22.2292H27.01V24.8626H27.5829V23.3861C27.5829 22.9509 27.7702 22.7085 28.1338 22.7085C28.2564 22.7069 28.3781 22.7293 28.4919 22.7746L28.6682 22.2237C28.5374 22.1769 28.3995 22.1527 28.2605 22.1521L28.2716 22.1631ZM20.8895 23.5404C20.8757 23.9146 21.0202 24.2772 21.2876 24.5394C21.555 24.8015 21.9204 24.9388 22.2943 24.9177C22.6383 24.9352 22.9763 24.8231 23.2418 24.6036L22.9664 24.1409C22.7683 24.2919 22.5268 24.375 22.2777 24.3778C21.8386 24.3422 21.5003 23.9755 21.5003 23.5349C21.5003 23.0943 21.8386 22.7275 22.2777 22.692C22.5268 22.6948 22.7683 22.7779 22.9664 22.9289L23.2418 22.4661C22.9763 22.2467 22.6383 22.1346 22.2943 22.1521C21.9204 22.1309 21.555 22.2683 21.2876 22.5304C21.0202 22.7925 20.8757 23.1552 20.8895 23.5294V23.5404ZM26.2553 23.5404V22.2292H25.6823V22.5488C25.4849 22.2948 25.1774 22.1513 24.856 22.1631C24.0953 22.1631 23.4787 22.7798 23.4787 23.5404C23.4787 24.301 24.0953 24.9177 24.856 24.9177C25.1774 24.9295 25.4849 24.786 25.6823 24.532V24.8515H26.2553V23.5404ZM24.1233 23.5404C24.1487 23.1081 24.5151 22.7755 24.9478 22.7917C25.3805 22.808 25.7209 23.1671 25.7139 23.6001C25.7069 24.0331 25.3551 24.381 24.9221 24.3833C24.7016 24.3861 24.4899 24.2966 24.3383 24.1366C24.1866 23.9765 24.1086 23.7604 24.1233 23.5404ZM17.2094 22.1631C16.4488 22.1738 15.8408 22.799 15.8514 23.5597C15.8621 24.3203 16.4873 24.9283 17.248 24.9177C17.6443 24.938 18.034 24.8104 18.3415 24.5596L18.0661 24.1354C17.8486 24.3098 17.5791 24.4067 17.3003 24.4108C16.9065 24.4447 16.5573 24.159 16.5125 23.7663H18.4682C18.4682 23.6946 18.4682 23.623 18.4682 23.5459C18.4682 22.7195 17.9559 22.1686 17.2177 22.1686L17.2094 22.1631ZM17.2094 22.6755C17.3826 22.6718 17.5501 22.737 17.6751 22.8569C17.8001 22.9768 17.8724 23.1414 17.876 23.3145H16.4988C16.5195 22.9467 16.8303 22.6629 17.1984 22.6755H17.2094ZM31.5632 23.5459V21.1715H31.0123V22.5488C30.8149 22.2948 30.5074 22.1513 30.186 22.1631C29.4253 22.1631 28.8087 22.7798 28.8087 23.5404C28.8087 24.301 29.4253 24.9177 30.186 24.9177C30.5074 24.9295 30.8149 24.786 31.0123 24.532V24.8515H31.5632V23.5459ZM32.519 24.4797C32.5548 24.4792 32.5904 24.4858 32.6237 24.499C32.6553 24.5119 32.6843 24.5306 32.7091 24.5541C32.7333 24.5778 32.7529 24.6058 32.7669 24.6367C32.7951 24.7017 32.7951 24.7755 32.7669 24.8405C32.7529 24.8714 32.7333 24.8994 32.7091 24.9232C32.6843 24.9467 32.6553 24.9653 32.6237 24.9783C32.5907 24.9928 32.5551 25.0003 32.519 25.0003C32.4124 24.9995 32.3159 24.9373 32.2711 24.8405C32.2433 24.7754 32.2433 24.7018 32.2711 24.6367C32.2852 24.6058 32.3048 24.5778 32.329 24.5541C32.3538 24.5306 32.3827 24.5119 32.4144 24.499C32.4502 24.4847 32.4887 24.4781 32.5273 24.4797H32.519ZM32.519 24.9452C32.5465 24.9454 32.5737 24.9397 32.5989 24.9287C32.6226 24.9181 32.6441 24.9031 32.6623 24.8846C32.7337 24.8067 32.7337 24.6871 32.6623 24.6091C32.6441 24.5906 32.6226 24.5756 32.5989 24.5651C32.5737 24.5541 32.5465 24.5485 32.519 24.5485C32.4916 24.5487 32.4644 24.5543 32.4391 24.5651C32.4144 24.5752 32.3919 24.5902 32.373 24.6091C32.3016 24.6871 32.3016 24.8067 32.373 24.8846C32.392 24.9035 32.4144 24.9185 32.4391 24.9287C32.4669 24.9407 32.497 24.9463 32.5273 24.9452H32.519ZM32.5356 24.6174C32.5613 24.6162 32.5866 24.624 32.6072 24.6394C32.6243 24.6536 32.6335 24.6751 32.632 24.6973C32.6328 24.7158 32.6258 24.7338 32.6127 24.7469C32.5967 24.7614 32.5764 24.7701 32.5548 24.7717L32.6347 24.8626H32.5714L32.497 24.7717H32.4722V24.8626H32.4199V24.6202L32.5356 24.6174ZM32.475 24.6642V24.7303H32.5356C32.5463 24.7336 32.5578 24.7336 32.5686 24.7303C32.5725 24.7225 32.5725 24.7134 32.5686 24.7056C32.5725 24.6978 32.5725 24.6886 32.5686 24.6808C32.5578 24.6775 32.5463 24.6775 32.5356 24.6808L32.475 24.6642ZM29.445 23.5459C29.4705 23.1136 29.8368 22.781 30.2695 22.7972C30.7022 22.8135 31.0426 23.1726 31.0356 23.6056C31.0286 24.0386 30.6768 24.3865 30.2438 24.3888C30.0233 24.3916 29.8117 24.3021 29.66 24.1421C29.5083 23.9821 29.4304 23.7659 29.445 23.5459ZM10.1 23.5459V22.2292H9.52707V22.5488C9.32969 22.2948 9.02216 22.1513 8.70072 22.1631C7.94008 22.1631 7.32346 22.7798 7.32346 23.5404C7.32346 24.301 7.94008 24.9177 8.70072 24.9177C9.02216 24.9295 9.32969 24.786 9.52707 24.532V24.8515H10.1V23.5459ZM7.96802 23.5459C7.99349 23.1136 8.35983 22.781 8.79255 22.7972C9.22527 22.8135 9.56564 23.1726 9.55864 23.6056C9.55165 24.0386 9.19985 24.3865 8.76683 24.3888C8.54539 24.3931 8.33228 24.3044 8.17938 24.1442C8.02648 23.9839 7.9478 23.7669 7.96251 23.5459H7.96802Z" fill="white"/>
<path d="M32.172 16.2358V15.8062H32.3014V15.7173H31.9736V15.8062H32.1141V16.2358H32.172ZM32.8083 16.2358V15.7173H32.7091L32.5934 16.0876L32.4777 15.7173H32.3896V16.2358H32.4612V15.8469L32.5686 16.1839H32.643L32.7504 15.8469V16.2395L32.8083 16.2358Z" fill="white"/>
<path d="M16.2902 17.9922C16.3685 18.0578 16.4521 18.1233 16.5344 18.1875C14.9466 19.2352 13.0404 19.844 10.9939 19.844C5.46686 19.8453 0.988037 15.4032 0.988037 9.92267C0.988037 4.44353 5.46686 0 10.9925 0C13.0404 0 14.9466 0.610132 16.5304 1.65645C16.4494 1.72469 16.3685 1.78758 16.3078 1.85716C13.9389 3.88691 12.5831 6.8292 12.5831 9.92267C12.5831 13.0148 13.9335 15.9571 16.2902 17.9922ZM23.3606 0C21.31 0 19.4065 0.610132 17.8228 1.65645C17.9037 1.72469 17.9846 1.78758 18.0453 1.85716C20.4143 3.88691 21.7701 6.8292 21.7701 9.92267C21.7701 13.0135 20.4197 15.9531 18.0629 17.9922C17.9846 18.0578 17.901 18.1233 17.8187 18.1875C19.4065 19.2352 21.31 19.844 23.3592 19.844C28.8863 19.8453 33.3651 15.4032 33.3651 9.92267C33.3651 4.44486 28.8863 0 23.3606 0ZM17.1766 2.12743C17.0471 2.22778 16.9216 2.32813 16.7988 2.43651C14.6889 4.25487 13.3574 6.93222 13.3574 9.92267C13.3574 12.9145 14.6889 15.5905 16.7988 17.4088C16.9202 17.5159 17.0484 17.6202 17.1766 17.7192C17.3061 17.6202 17.4315 17.5159 17.5543 17.4088C19.6629 15.5905 20.9957 12.9145 20.9957 9.92267C20.9957 6.93222 19.6642 4.25487 17.5543 2.43651C17.4329 2.32947 17.3061 2.22778 17.1766 2.12743Z" fill="white"/>
</g>
</svg>
