<svg width="103" height="25" viewBox="0 0 103 25" fill="none" xmlns="http://www.w3.org/2000/svg">
<g opacity="0.5">
<path d="M38.2827 5.59131H32.6173C32.2295 5.59131 31.8999 5.87335 31.8389 6.25586L29.5475 20.7837C29.5369 20.8511 29.541 20.9201 29.5596 20.9858C29.5782 21.0515 29.6108 21.1124 29.6553 21.1643C29.6997 21.2162 29.7549 21.2578 29.817 21.2862C29.8791 21.3147 29.9466 21.3293 30.0149 21.3292H32.72C33.1069 21.3292 33.4373 21.0471 33.4976 20.6639L34.1153 16.745C34.1748 16.3618 34.506 16.0797 34.893 16.0797H36.6864C40.4185 16.0797 42.5721 14.2744 43.1347 10.6956C43.3877 9.12987 43.1451 7.89974 42.4129 7.03799C41.6069 6.09214 40.1788 5.59131 38.2827 5.59131ZM38.9361 10.8973C38.6265 12.9304 37.0734 12.9304 35.5709 12.9304H34.7158L35.3156 9.13359C35.3332 9.02251 35.3899 8.92135 35.4754 8.84835C35.561 8.77535 35.6698 8.73532 35.7822 8.73545H36.1744C37.1977 8.73545 38.1621 8.73545 38.6615 9.31814C38.9591 9.66642 39.0499 10.1836 38.9368 10.8973H38.9361ZM55.2179 10.8318H52.5039C52.3914 10.8318 52.2825 10.872 52.197 10.9452C52.1115 11.0183 52.0548 11.1195 52.0373 11.2307L51.9182 11.9897L51.7277 11.7144C51.1398 10.8616 49.8301 10.5765 48.5233 10.5765C45.5257 10.5765 42.9643 12.8478 42.4657 16.0328C42.2067 17.6217 42.5758 19.1413 43.477 20.2002C44.3031 21.1751 45.4863 21.5807 46.8943 21.5807C49.3099 21.5807 50.6494 20.0276 50.6494 20.0276L50.5281 20.7814C50.5172 20.8489 50.5211 20.9179 50.5395 20.9837C50.5579 21.0495 50.5904 21.1105 50.6347 21.1625C50.679 21.2145 50.7341 21.2563 50.7961 21.2849C50.8581 21.3136 50.9256 21.3284 50.994 21.3284H53.4378C53.8263 21.3284 54.1545 21.0464 54.2155 20.6631L55.6815 11.3773C55.6924 11.31 55.6886 11.2412 55.6702 11.1756C55.6519 11.11 55.6195 11.0491 55.5754 10.9972C55.5312 10.9454 55.4763 10.9037 55.4145 10.8751C55.3526 10.8466 55.2853 10.8318 55.2172 10.8318H55.2179ZM51.436 16.1125C51.174 17.6626 49.9439 18.7022 48.3752 18.7022C47.5871 18.7022 46.9575 18.4499 46.5535 17.9714C46.1523 17.4952 45.9998 16.8187 46.1278 16.0648C46.3719 14.5281 47.6236 13.4543 49.1677 13.4543C49.9387 13.4543 50.5646 13.7103 50.9768 14.1932C51.3906 14.6807 51.5543 15.3616 51.436 16.1125ZM69.6668 10.8318H66.9409C66.6804 10.8318 66.4364 10.9613 66.289 11.1771L62.5287 16.716L60.9347 11.3937C60.8858 11.2313 60.7859 11.089 60.6499 10.9878C60.5139 10.8867 60.3489 10.8319 60.1793 10.8318H57.5003C57.4251 10.8317 57.3509 10.8495 57.284 10.8838C57.217 10.9181 57.1593 10.9679 57.1154 11.0291C57.0716 11.0902 57.043 11.1609 57.0321 11.2353C57.0211 11.3098 57.028 11.3857 57.0523 11.4569L60.055 20.2694L57.2316 24.2545C57.1813 24.3252 57.1514 24.4083 57.1452 24.4949C57.1391 24.5814 57.1569 24.668 57.1967 24.745C57.2366 24.8221 57.2969 24.8867 57.3711 24.9317C57.4452 24.9767 57.5304 25.0004 57.6171 25.0002H60.3401C60.5983 25.0002 60.8402 24.8744 60.9875 24.6623L70.0545 11.5737C70.1039 11.503 70.133 11.4201 70.1386 11.334C70.1441 11.2479 70.1259 11.1619 70.0861 11.0854C70.0462 11.0089 69.986 10.9448 69.9123 10.9001C69.8385 10.8554 69.7538 10.8318 69.6676 10.8318H69.6668Z" fill="white"/>
<path d="M78.6937 5.5912H73.0268C72.6398 5.5912 72.3109 5.87324 72.2499 6.25575L69.9586 20.7836C69.9478 20.8509 69.9518 20.9198 69.9702 20.9855C69.9887 21.0511 70.0212 21.112 70.0655 21.1639C70.1098 21.2158 70.1648 21.2574 70.2268 21.2859C70.2888 21.3144 70.3562 21.3291 70.4244 21.329H73.3319C73.4631 21.3288 73.5899 21.2818 73.6895 21.1964C73.7891 21.111 73.8549 20.9928 73.8752 20.8632L74.5256 16.7449C74.5851 16.3617 74.9163 16.0796 75.3025 16.0796H77.0959C80.828 16.0796 82.9816 14.2742 83.545 10.6955C83.7987 9.12976 83.5547 7.89963 82.8216 7.03788C82.0172 6.09203 80.5891 5.5912 78.6937 5.5912ZM79.3471 10.8972C79.0382 12.9303 77.4852 12.9303 75.9819 12.9303H75.1283L75.7289 9.13348C75.7461 9.02252 75.8025 8.92139 75.8878 8.84837C75.9731 8.77535 76.0817 8.73526 76.194 8.73534H76.5862C77.6079 8.73534 78.5739 8.73534 79.0732 9.31803C79.3709 9.66631 79.4602 10.1835 79.3471 10.8972ZM95.6282 10.8317H92.9164C92.8039 10.8315 92.6952 10.8716 92.6098 10.9448C92.5245 11.018 92.4682 11.1194 92.4513 11.2306L92.3307 11.9896L92.1402 11.7143C91.5531 10.8615 90.2441 10.5764 88.9365 10.5764C85.939 10.5764 83.379 12.8477 82.8804 16.0327C82.6222 17.6216 82.9891 19.1412 83.8903 20.2001C84.7185 21.175 85.8995 21.5806 87.3075 21.5806C89.7231 21.5806 91.0626 20.0275 91.0626 20.0275L90.9413 20.7813C90.9306 20.8489 90.9346 20.918 90.9531 20.9838C90.9717 21.0497 91.0043 21.1107 91.0487 21.1627C91.0932 21.2147 91.1484 21.2565 91.2105 21.2851C91.2727 21.3136 91.3403 21.3284 91.4087 21.3283H93.8518C94.2388 21.3283 94.5685 21.0463 94.6287 20.663L96.0963 11.3772C96.1067 11.3096 96.1024 11.2406 96.0836 11.1749C96.0648 11.1092 96.032 11.0483 95.9874 10.9965C95.9429 10.9446 95.8876 10.9031 95.8255 10.8746C95.7633 10.8462 95.6958 10.8315 95.6274 10.8317H95.6282ZM91.8463 16.1124C91.5858 17.6625 90.3542 18.7021 88.7855 18.7021C87.9989 18.7021 87.3678 18.4498 86.9637 17.9713C86.5626 17.495 86.4115 16.8186 86.5381 16.0647C86.7836 14.528 88.0331 13.4542 89.578 13.4542C90.3482 13.4542 90.9748 13.7102 91.3871 14.1931C91.8024 14.6806 91.9661 15.3615 91.8463 16.1124ZM98.8266 5.99008L96.5011 20.7843C96.4904 20.8516 96.4945 20.9204 96.513 20.986C96.5315 21.0516 96.5641 21.1124 96.6083 21.1641C96.6526 21.2159 96.7076 21.2575 96.7695 21.286C96.8314 21.3144 96.8988 21.3291 96.9669 21.329H99.3044C99.6929 21.329 100.023 21.047 100.082 20.6637L102.376 6.13668C102.386 6.06928 102.382 6.00036 102.364 5.93465C102.345 5.86895 102.313 5.80803 102.269 5.7561C102.224 5.70417 102.169 5.66247 102.107 5.63387C102.045 5.60527 101.978 5.59046 101.91 5.59045H99.2917C99.1794 5.59103 99.0709 5.63154 98.9857 5.70476C98.9005 5.77797 98.8441 5.8791 98.8266 5.99008Z" fill="#E9E9E9"/>
<path d="M6.01966 24.152L6.45278 21.4001L5.48832 21.3777H0.879639L4.08183 1.07065C4.09131 1.00854 4.12287 0.951931 4.17071 0.9112C4.21855 0.870469 4.27946 0.848346 4.34229 0.848887H12.113C14.6923 0.848887 16.4731 1.38544 17.4026 2.44514C17.8379 2.94225 18.1155 3.46169 18.2495 4.03322C18.3909 4.63302 18.3931 5.35041 18.2554 6.22407L18.2457 6.28733V6.84769L18.6811 7.09476C19.0487 7.28899 19.3397 7.5115 19.5637 7.76675C19.9358 8.19242 20.1776 8.73195 20.2796 9.37268C20.3845 10.0313 20.3495 10.8149 20.1776 11.702C19.9789 12.723 19.6567 13.6115 19.2228 14.3386C18.84 14.9903 18.3252 15.5548 17.7114 15.9959C17.1347 16.4051 16.4493 16.7155 15.6754 16.9142C14.9245 17.1099 14.0687 17.2089 13.1303 17.2089H12.5253C12.0936 17.2089 11.6732 17.3644 11.3435 17.6435C11.0141 17.9255 10.7955 18.3152 10.7266 18.7434L10.6819 18.9912L9.91543 23.8417L9.8812 24.0203C9.87226 24.0761 9.85589 24.1044 9.83282 24.123C9.81045 24.1417 9.78236 24.1522 9.7532 24.1528H6.01966V24.152Z" fill="white"/>
<path d="M19.0941 6.35229C19.071 6.50113 19.0442 6.6522 19.0144 6.80773C17.9897 12.0691 14.4839 13.8871 10.0062 13.8871H7.72603C7.17906 13.8871 6.71767 14.2845 6.63209 14.8247L5.46447 22.2271L5.13406 24.3256C5.12095 24.4089 5.12602 24.494 5.14893 24.5751C5.17185 24.6562 5.21205 24.7313 5.26679 24.7954C5.32153 24.8595 5.38949 24.9109 5.46601 24.9462C5.54253 24.9815 5.62579 24.9998 5.71005 24.9999H9.75316C10.2324 24.9999 10.6387 24.6523 10.7146 24.1798L10.7541 23.9744L11.5154 19.1432L11.5645 18.8783C11.6389 18.4042 12.0467 18.056 12.5252 18.056H13.1302C17.0476 18.056 20.1143 16.4657 21.0111 11.8629C21.3854 9.93997 21.1912 8.33478 20.2007 7.20586C19.8867 6.85648 19.5117 6.56723 19.0941 6.35229Z" fill="#E9E9E9"/>
<path d="M18.0217 5.92407C17.6945 5.82948 17.3617 5.75566 17.0252 5.70305C16.3604 5.60089 15.6885 5.55187 15.016 5.55645H8.92488C8.69316 5.55634 8.46905 5.6391 8.293 5.78976C8.11695 5.94042 8.00058 6.14907 7.96489 6.37802L6.67002 14.5855L6.63281 14.8252C6.6733 14.5641 6.80581 14.326 7.00643 14.1541C7.20704 13.9821 7.46253 13.8876 7.72675 13.8875H10.0069C14.4846 13.8875 17.9904 12.0687 19.0152 6.80815C19.0457 6.65262 19.0717 6.50081 19.0948 6.35271C18.8244 6.21106 18.5426 6.09232 18.2524 5.99774C18.178 5.97244 18.1006 5.94863 18.0224 5.92556L18.0217 5.92407Z" fill="#D1D1D1"/>
<path d="M7.96492 6.37771C8.00035 6.14878 8.1167 5.94013 8.29284 5.78966C8.46898 5.63919 8.69324 5.55686 8.9249 5.55763H15.0152C15.7371 5.55763 16.4106 5.60451 17.0253 5.70423C17.4413 5.7696 17.8516 5.86739 18.2524 5.9967C18.5425 6.09163 18.8243 6.21036 19.0948 6.35167C19.3999 4.40714 19.0926 3.08399 18.0411 1.88512C16.8824 0.564952 14.7905 0.00012207 12.1137 0.00012207H4.34301C3.79604 0.00012207 3.33018 0.398256 3.24535 0.938528L0.00818052 21.4547C-0.00687633 21.55 -0.00110018 21.6474 0.0251111 21.7403C0.0513225 21.8331 0.0973461 21.9192 0.160012 21.9925C0.222678 22.0659 0.300498 22.1248 0.388111 22.1651C0.475725 22.2055 0.571049 22.2264 0.667521 22.2264H5.46448L6.67005 14.5845L7.96492 6.37846V6.37771Z" fill="white"/>
</g>
</svg>
