<svg width="27" height="23" viewBox="0 0 27 23" fill="none" xmlns="http://www.w3.org/2000/svg">
<path d="M17.7222 15.9444V1.5H1.05554V15.9444H17.7222ZM17.7222 15.9444H25.5V10.3889L22.1667 7.05556H17.7222V15.9444ZM8.83332 18.7222C8.83332 20.2563 7.58967 21.5 6.05554 21.5C4.52142 21.5 3.27776 20.2563 3.27776 18.7222C3.27776 17.1881 4.52142 15.9444 6.05554 15.9444C7.58967 15.9444 8.83332 17.1881 8.83332 18.7222ZM23.2778 18.7222C23.2778 20.2563 22.0341 21.5 20.5 21.5C18.9659 21.5 17.7222 20.2563 17.7222 18.7222C17.7222 17.1881 18.9659 15.9444 20.5 15.9444C22.0341 15.9444 23.2778 17.1881 23.2778 18.7222Z" stroke="#140F38" stroke-width="1.5" stroke-linecap="round" stroke-linejoin="round"/>
</svg>
