<svg width="45" height="45" viewBox="0 0 45 45" fill="none" xmlns="http://www.w3.org/2000/svg">
<circle cx="22.5" cy="22.5" r="22.5" fill="#503ADC"/>
<path d="M32 17.6563C31.3747 17.9375 30.7031 18.1276 29.997 18.213C30.7176 17.7757 31.2697 17.0827 31.5304 16.258C30.8458 16.67 30.0966 16.96 29.3153 17.1156C28.6795 16.4288 27.7728 16 26.7697 16C24.8443 16 23.2828 17.5817 23.2828 19.5339C23.2828 19.8105 23.3136 20.0804 23.3727 20.3395C20.4742 20.1919 17.9046 18.785 16.1846 16.6472C15.8843 17.1693 15.7124 17.7763 15.7124 18.424C15.7124 19.6499 16.3281 20.7315 17.2637 21.3651C16.7099 21.3477 16.1681 21.1962 15.6839 20.9233V20.968C15.6839 22.6803 16.8858 24.1082 18.4813 24.4329C18.1882 24.5143 17.8806 24.5568 17.5624 24.5568C17.3374 24.5568 17.1191 24.5352 16.9059 24.4946C17.3497 25.8981 18.6376 26.9197 20.1633 26.9486C18.9697 27.8967 17.4658 28.4619 15.8324 28.4619C15.551 28.4619 15.273 28.4449 15 28.4115C16.5436 29.4145 18.3763 30 20.3458 30C26.7602 30 30.2683 24.6151 30.2683 19.9452C30.2683 19.7919 30.2649 19.6397 30.2576 19.4881C30.9411 18.9872 31.5311 18.3669 32 17.6563Z" fill="white"/>
</svg>
