<svg width="82" height="25" viewBox="0 0 82 25" fill="none" xmlns="http://www.w3.org/2000/svg">
<g opacity="0.5">
<path d="M29.2085 24.7146L33.3357 0.495247H39.9371L35.8069 24.7146H29.2085ZM59.6571 1.01734C58.3496 0.526672 56.3 0.00012207 53.7408 0.00012207C47.2175 0.00012207 42.6229 3.285 42.5836 7.9929C42.5469 11.473 45.864 13.4145 48.368 14.5729C50.9378 15.7604 51.8014 16.5173 51.7891 17.5772C51.7726 19.2008 49.7371 19.9421 47.8395 19.9421C45.1974 19.9421 43.7937 19.575 41.6256 18.6711L40.7747 18.2862L39.8484 23.7079C41.3903 24.3842 44.2414 24.9697 47.2021 25.0001C54.1415 25.0001 58.6464 21.7527 58.6976 16.7251C58.7222 13.9699 56.9635 11.8735 53.1548 10.1447C50.8474 9.02435 49.4343 8.27671 49.4493 7.1422C49.4493 6.1355 50.6454 5.05901 53.2302 5.05901C55.3886 5.02548 56.9526 5.49624 58.171 5.98691L58.7625 6.26639L59.6571 1.01734ZM76.6451 0.494875H71.5441C69.964 0.494875 68.7812 0.926163 68.0874 2.50334L58.2832 24.6986H65.2154C65.2154 24.6986 66.3485 21.7144 66.6049 21.059C67.3624 21.059 74.0967 21.0694 75.0594 21.0694C75.2568 21.9174 75.8625 24.6986 75.8625 24.6986H81.9881L76.6451 0.494134V0.494875ZM68.5517 16.1343C69.0978 14.7388 71.182 9.36383 71.182 9.36383C71.1431 9.42829 71.724 7.9616 72.0572 7.05226L72.5033 9.1404C72.5033 9.1404 73.7673 14.9217 74.0316 16.1339H68.5517V16.1343ZM23.6044 0.494875L17.1414 17.0114L16.4529 13.655C15.2496 9.78584 11.5011 5.59385 7.3103 3.4952L13.22 24.676L20.2046 24.6682L30.5975 0.494628L23.6044 0.494505" fill="white"/>
<path d="M11.1108 0.494019H0.465847L0.38147 0.997928C8.66313 3.00268 14.1428 7.84741 16.418 13.6693L14.1033 2.53947C13.7038 1.00584 12.5448 0.548083 11.111 0.494636" fill="#E4E4E4"/>
</g>
</svg>
